<?xml version="1.0" encoding="UTF-8"?>
<svg width="19px" height="19px" viewBox="0 0 19 19" version="1.1" xmlns="http://www.w3.org/2000/svg" xmlns:xlink="http://www.w3.org/1999/xlink">
    <!-- Generator: Sketch 63.1 (92452) - https://sketch.com -->
    <title>icon: IG</title>
    <desc>Created with Sketch.</desc>
    <g id="icon:-IG" stroke="none" stroke-width="1" fill="none" fill-rule="evenodd">
        <g id="instagram-brands" fill="#4B8177" fill-rule="nonzero">
            <path d="M9.50211935,4.62863996 C6.80630229,4.62863996 4.63184607,6.80358139 4.63184607,9.5 C4.63184607,12.1964186 6.80630229,14.37136 9.50211935,14.37136 C12.1979364,14.37136 14.3723926,12.1964186 14.3723926,9.5 C14.3723926,6.80358139 12.1979364,4.62863996 9.50211935,4.62863996 Z M9.50211935,12.66702 C7.76001115,12.66702 6.33580591,11.2467366 6.33580591,9.5 C6.33580591,7.75326342 7.75577245,6.33298003 9.50211935,6.33298003 C11.2484663,6.33298003 12.6684328,7.75326342 12.6684328,9.5 C12.6684328,11.2467366 11.2442276,12.66702 9.50211935,12.66702 L9.50211935,12.66702 Z M15.7075851,4.42937632 C15.7075851,5.06108446 15.1989403,5.56560303 14.5716118,5.56560303 C13.9400446,5.56560303 13.4356386,5.05684481 13.4356386,4.42937632 C13.4356386,3.80190784 13.9442833,3.29314962 14.5716118,3.29314962 C15.1989403,3.29314962 15.7075851,3.80190784 15.7075851,4.42937632 Z M18.9332404,5.58256164 C18.8611824,4.06052661 18.5136085,2.7123173 17.3988288,1.60152851 C16.2882878,0.490739708 14.9403793,0.143088252 13.4186838,0.0667745175 C11.8503625,-0.0222581725 7.14963748,-0.0222581725 5.58131623,0.0667745175 C4.06385945,0.1388486 2.71595092,0.486500056 1.60117122,1.59728885 C0.486391523,2.70807765 0.14305633,4.05628696 0.0667596207,5.57832199 C-0.0222532069,7.14699319 -0.0222532069,11.8487672 0.0667596207,13.4174384 C0.138817624,14.9394734 0.486391523,16.2876827 1.60117122,17.3984715 C2.71595092,18.5092603 4.05962075,18.8569117 5.58131623,18.9332255 C7.14963748,19.0222582 11.8503625,19.0222582 13.4186838,18.9332255 C14.9403793,18.8611514 16.2882878,18.5134999 17.3988288,17.3984715 C18.5093698,16.2876827 18.8569437,14.9394734 18.9332404,13.4174384 C19.0222532,11.8487672 19.0222532,7.15123285 18.9332404,5.58256164 Z M16.9071389,15.1005802 C16.5765198,15.9315519 15.9364752,16.5717394 15.1014501,16.9066719 C13.8510318,17.4027111 10.8839375,17.2882405 9.50211935,17.2882405 C8.12030117,17.2882405 5.14896821,17.3984715 3.90278862,16.9066719 C3.07200223,16.575979 2.43195761,15.9357916 2.09709983,15.1005802 C1.60117122,13.8498829 1.71561629,10.8821265 1.71561629,9.5 C1.71561629,8.11787348 1.60540993,5.1458775 2.09709983,3.89941984 C2.42771891,3.06844806 3.06776352,2.42826063 3.90278862,2.09332813 C5.15320692,1.59728885 8.12030117,1.71175946 9.50211935,1.71175946 C10.8839375,1.71175946 13.8552705,1.60152851 15.1014501,2.09332813 C15.9322365,2.42402098 16.5722811,3.06420841 16.9071389,3.89941984 C17.4030675,5.15011715 17.2886224,8.11787348 17.2886224,9.5 C17.2886224,10.8821265 17.4030675,13.8541225 16.9071389,15.1005802 Z" id="Shape"></path>
        </g>
    </g>
</svg>