<?xml version="1.0" encoding="UTF-8"?>
<svg width="20px" height="20px" viewBox="0 0 20 20" version="1.1" xmlns="http://www.w3.org/2000/svg" xmlns:xlink="http://www.w3.org/1999/xlink">
    <!-- Generator: Sketch 63.1 (92452) - https://sketch.com -->
    <title>icon: website</title>
    <desc>Created with Sketch.</desc>
    <g id="icon:-website" stroke="none" stroke-width="1" fill="none" fill-rule="evenodd">
        <g id="globe-light" fill="#4B8177" fill-rule="nonzero">
            <path d="M9.92,0 C4.44,0 0,4.44 0,9.92 C0,15.4 4.44,19.84 9.92,19.84 C15.4,19.84 19.84,15.4 19.84,9.92 C19.84,4.44 15.4,0 9.92,0 Z M17.648,6.08 L14.348,6.08 C13.988,4.304 13.384,2.792 12.62,1.716 C14.82,2.444 16.628,4.032 17.648,6.08 Z M13.44,9.92 C13.44,10.836 13.376,11.688 13.268,12.48 L6.572,12.48 C6.464,11.688 6.4,10.836 6.4,9.92 C6.4,9.004 6.464,8.152 6.572,7.36 L13.268,7.36 C13.376,8.152 13.44,9.004 13.44,9.92 L13.44,9.92 Z M9.92,1.28 C10.996,1.28 12.376,3.044 13.044,6.08 L6.796,6.08 C7.464,3.044 8.844,1.28 9.92,1.28 Z M7.22,1.716 C6.46,2.788 5.852,4.3 5.492,6.08 L2.192,6.08 C3.212,4.032 5.02,2.444 7.22,1.716 Z M1.28,9.92 C1.28,9.028 1.416,8.168 1.668,7.36 L5.288,7.36 C5.184,8.18 5.12,9.032 5.12,9.92 C5.12,10.808 5.18,11.66 5.288,12.48 L1.668,12.48 C1.416,11.672 1.28,10.812 1.28,9.92 Z M2.192,13.76 L5.492,13.76 C5.852,15.536 6.456,17.048 7.22,18.124 C5.02,17.396 3.212,15.808 2.192,13.76 Z M9.92,18.56 C8.844,18.56 7.464,16.796 6.796,13.76 L13.044,13.76 C12.376,16.796 10.996,18.56 9.92,18.56 L9.92,18.56 Z M12.62,18.124 C13.38,17.052 13.988,15.54 14.348,13.76 L17.648,13.76 C16.628,15.808 14.82,17.396 12.62,18.124 Z M14.552,12.48 C14.656,11.66 14.72,10.808 14.72,9.92 C14.72,9.032 14.66,8.18 14.552,7.36 L18.172,7.36 C18.424,8.168 18.56,9.028 18.56,9.92 C18.56,10.812 18.424,11.672 18.172,12.48 L14.552,12.48 Z" id="Shape"></path>
        </g>
    </g>
</svg>