<?xml version="1.0" encoding="UTF-8"?>
<svg width="82px" height="66px" viewBox="0 0 82 66" version="1.1" xmlns="http://www.w3.org/2000/svg" xmlns:xlink="http://www.w3.org/1999/xlink">
    <!-- Generator: Sketch 63.1 (92452) - https://sketch.com -->
    <title>TB logo V2</title>
    <desc>Created with Sketch.</desc>
    <g id="Page-1" stroke="none" stroke-width="1" fill="none" fill-rule="evenodd">
        <g id="Logo---white-w/-words" transform="translate(-22.000000, -16.000000)" fill-rule="nonzero">
            <g id="TB-logo-V2" transform="translate(22.000000, 16.000000)">
                <path d="M66.21678,13.70754 C64.9963046,14.0088556 63.8050968,14.4182937 62.65728,14.931 C61.6770811,15.3703595 60.7296512,15.8794451 59.82228,16.45434 C59.07636,16.92558 58.35816,17.4384 57.65886,17.97642 C57.32874,18.22842 57.01248,18.50436 56.68362,18.76014 C56.3976,18.98316 55.84194,19.10538 55.67562,18.66312 C55.57104,18.38718 55.76004,18.18558 55.90494,17.97516 L56.23758,17.49006 C56.45262,17.17506 56.67228,16.863 56.89656,16.55388 C57.35268,15.92388 57.8277,15.30522 58.32288,14.7042 C58.81806,14.10318 59.34726,13.5009 59.89284,12.92886 C60.43842,12.35682 61.00794,11.8062 61.6014,11.29086 C62.1881574,10.7708826 62.8022296,10.2825691 63.441,9.828 C64.0715436,9.3818702 64.7297445,8.97617607 65.41164,8.61336 C66.0863913,8.25587817 66.7872809,7.95008135 67.50828,7.6986 C67.70484,7.63056 67.90518,7.5663 68.10552,7.50708 C71.04006,6.63894 74.09934,7.41384 77.06916,7.63308 C78.51942,7.73892 79.96716,7.80822 81.42498,7.85484 C83.44098,7.9191 79.28298,9.91116 74.11698,15.5673 C71.442,18.48042 68.73048,22.05 64.67706,22.59558 C62.2188,22.92822 60.77736,22.49604 58.77144,21.17304 C58.6868315,21.1174256 58.6310223,21.02736 58.6188823,20.9268405 C58.6067423,20.826321 58.6395046,20.7255583 58.70844,20.6514 C60.83784,18.37458 64.4931,15.71472 66.4965,14.32116 C66.6324655,14.2265982 66.6813592,14.0483377 66.6126638,13.897641 C66.5439684,13.7469443 66.3773396,13.6669302 66.21678,13.70754 Z" id="Path" fill="#FFFFFF"></path>
                <path d="M53.71002,10.60542 C54.6651,13.56264 54.34002,16.04106 54.18756,17.44218 C54.1849414,17.5990733 54.2693158,17.7445463 54.4068,17.82018 C54.59958,17.9172 54.74196,17.8038 54.8289,17.63118 C54.93474,17.42202 55.00152,17.19018 55.0935,16.97472 C55.21614,16.68576 55.33332,16.3947 55.44504,16.10154 C55.67436,15.50178 55.881,14.89446 56.05866,14.27706 C56.2382474,13.6552853 56.3846144,13.024393 56.49714,12.38706 C56.6078827,11.7577784 56.6756593,11.1216879 56.7,10.4832 C56.7247779,9.85179883 56.6948461,9.21943786 56.61054,8.5932 C56.5550607,8.18002158 56.4708568,7.77121141 56.35854,7.36974 C55.82808,5.4999 54.3753,4.1202 53.25138,2.60064 C52.7037,1.85808 52.17156,1.10208 51.65496,0.33264 C50.93676,-0.72828 51.27696,2.1798 49.99554,6.8733 C49.3353,9.2925 48.34368,11.95992 49.4235,14.32116 C50.07618,15.7563 50.79186,16.38 52.164,17.01 C52.2283714,17.0394739 52.3024874,17.038944 52.3664308,17.0085527 C52.4303742,16.9781613 52.4775864,16.9210258 52.49538,16.8525 C52.97796,14.98392 53.16822,12.23082 53.24004,10.66716 C53.2413309,10.547989 53.3300817,10.4479152 53.4482445,10.4323924 C53.5664073,10.4168697 53.6779937,10.4906257 53.71002,10.60542 L53.71002,10.60542 Z" id="Path" fill="#FFFFFF"></path>
                <path d="M20.26458,47.82204 C22.2661797,47.6241748 24.089593,46.5856198 25.2808164,44.9649599 C26.4720399,43.3442999 26.9189963,41.2940164 26.5104,39.3246 C26.2953217,38.2825182 25.8473469,37.3025734 25.2,36.4581 C24.66954,35.76762 24.02694,35.12502 23.19912,34.8201 C22.96476,34.7319 22.617,34.64496 22.56912,34.35138 C22.53888,34.14474 22.73166,34.11072 22.88286,34.07418 C23.72076,33.87006 24.47424,33.2955 25.06392,32.68818 C25.4164121,32.3234859 25.71855,31.9132902 25.9623,31.4685 C26.2106757,31.0168299 26.3955391,30.5330474 26.51166,30.03084 C26.9305592,28.2249203 26.4450727,26.3280919 25.21008,24.94548 C24.62544,24.29154 23.96772,24.21594 24.63552,23.40324 C25.89552,21.87612 27.86994,20.53296 29.53314,19.48968 C31.35611,18.3370171 33.357083,17.4936283 35.45514,16.99362 C38.5538203,16.2873609 41.7687168,16.2607098 44.87868,16.9155 C46.24704,17.20278 49.99302,18.08982 48.5667,20.20284 C48.35754,20.51154 48.0438,20.72952 47.7414,20.9475 C44.9505,22.9635 42.65478,25.64226 41.30154,28.82754 C39.9798,31.93722 39.56778,34.79616 39.23766,38.2473 C39.14064,39.27546 39.09024,40.29102 38.99322,41.29776 C38.9919539,41.3327599 39.0165519,41.3633916 39.0509997,41.3697123 C39.0854474,41.376033 39.119318,41.3561295 39.13056,41.32296 C40.01256,38.17296 41.15286,34.50762 42.66486,31.64868 C44.17686,28.78974 46.35666,25.61706 49.05054,23.64138 C50.778,22.365 53.046,21.61782 55.188,21.98448 C57.36528,22.36248 59.01966,23.91102 60.33132,25.5969 C64.36332,30.79188 66.26466,37.61226 65.29068,44.13654 C64.51452,49.33278 62.10666,54.21654 58.58622,58.10364 C49.39704,68.25168 34.38036,66.65904 24.23232,57.47364 C24.13908,57.39048 24.04836,57.30606 23.95638,57.22164 C23.8644,57.13722 23.7762,57.0528 23.68674,56.96964 L23.4234,56.71764 C23.33646,56.6307 23.25078,56.54502 23.1651,56.45682 C23.07942,56.36862 22.995,56.28294 22.9131,56.19474 C22.8312,56.10654 22.74678,56.0196 22.6611,55.93014 C22.57542,55.84068 22.49856,55.75374 22.41792,55.66428 C22.33728,55.57482 22.26042,55.48536 22.1823,55.39464 C22.10418,55.30392 22.02732,55.21446 21.95046,55.12374 C21.8736,55.03302 21.79926,54.9423 21.72492,54.85032 C21.65058,54.75834 21.5775,54.66762 21.50442,54.57564 C21.43134,54.48366 21.36078,54.39168 21.29022,54.29844 C21.21966,54.2052 21.1491,54.11322 21.0798,54.01872 L20.87568,53.73774 C20.8089,53.6445 20.74338,53.55 20.67786,53.4555 C20.61234,53.361 20.55186,53.26524 20.48382,53.17074 C20.41578,53.07624 20.35782,52.97922 20.29608,52.88346 C20.23434,52.7877 20.17008,52.69194 20.11338,52.59492 C20.05668,52.4979 19.99368,52.40214 19.93572,52.30512 C19.87776,52.2081 19.8198,52.11108 19.7631,52.0128 C19.7064,51.91452 19.65096,51.8175 19.59678,51.71922 C19.5426,51.62094 19.48842,51.52392 19.43424,51.42438 C19.38006,51.32484 19.32966,51.22782 19.278,51.12828 L19.1268,50.82966 C19.07766,50.73012 19.02852,50.63058 18.98064,50.52978 C18.93276,50.42898 18.88614,50.32944 18.84078,50.22864 C18.79542,50.12784 18.7488,50.02704 18.7047,49.92624 C18.6606,49.82544 18.61776,49.72464 18.5787,49.62258 C18.53964,49.52052 18.49428,49.41972 18.4527,49.31766 C18.41112,49.2156 18.3708,49.11354 18.3267,49.01022 C18.2826,48.9069 18.24984,48.8061 18.21204,48.70278 L18.10242,48.39408 C18.06714,48.29076 18.03186,48.18744 17.99784,48.08412 C17.9956488,48.0724659 17.9922713,48.0610666 17.98776,48.0501 L17.97516,48.01356 L17.95122,47.94048 C17.9313124,47.8893728 17.9157179,47.8366889 17.9046,47.78298 C17.8989013,47.7593669 17.9039785,47.7344423 17.91846,47.71494 C17.95122,47.67588 18.00918,47.6973 18.05076,47.70486 L18.25236,47.7477 L18.32166,47.7603 C18.44766,47.78298 18.57366,47.80188 18.69966,47.817 C18.82566,47.83212 18.95922,47.84598 19.09026,47.8548 C19.2213,47.86362 19.35486,47.8674 19.48716,47.86866 C19.61946,47.86992 19.75428,47.86866 19.8891,47.86236 C20.02392,47.85606 20.14488,47.83338 20.26458,47.82204 Z" id="Path" fill="#FFFFFF"></path>
                <path d="M6.34220496,50.9120794 C7.29787968,50.9120794 8.144955,50.6659208 8.88343092,50.1736035 C9.62190684,49.6812862 10.3024631,49.0514097 10.9250996,48.2839739 C11.2002181,47.9654157 11.3377774,47.5165382 11.3377774,46.9373414 C11.3377774,46.633263 11.2834777,46.3943444 11.1748783,46.2205853 C11.0662789,46.0468263 10.9178597,45.9599468 10.7296207,45.9599468 C10.5124219,45.9599468 10.316943,46.0613062 10.143184,46.2640251 C9.49158756,47.0169809 8.92687068,47.5816978 8.44903332,47.9581757 C7.97119596,48.3346536 7.420959,48.5228926 6.79832244,48.5228926 C6.03088668,48.5228926 5.46978978,48.2188143 5.11503174,47.6106576 C4.7602737,47.002501 4.58289468,45.9454668 4.58289468,44.4395552 C4.58289468,44.0341174 4.5973746,43.4694005 4.62633444,42.7454045 L4.62633444,42.7454045 L7.2761598,42.7454045 C8.91239076,42.7454045 9.73050624,42.2458473 9.73050624,41.2467328 C9.73050624,40.9716143 9.67982652,40.7833754 9.57846708,40.6820159 C9.47710764,40.5806565 9.31058856,40.5299768 9.07890984,40.5299768 L9.07890984,40.5299768 L6.64628328,40.5299768 C8.52867288,38.864786 9.46986768,36.9099968 9.46986768,34.6656092 C9.46986768,33.8547336 9.29610864,33.1814174 8.94859056,32.6456603 C8.60107248,32.1099033 8.12323512,31.8420248 7.51507848,31.8420248 C6.68972304,31.8420248 5.9186673,32.2329826 5.20191126,33.0148983 C4.48515522,33.796814 3.8733786,34.8466082 3.3665814,36.1642809 C2.8597842,37.4819536 2.48330628,38.9371856 2.23714764,40.5299768 L2.23714764,40.5299768 L0.99911448,40.5299768 C0.34751808,40.5299768 0.02171988,40.9354145 0.02171988,41.74629 C0.02171988,42.0938081 0.09773946,42.3472067 0.24977862,42.5064858 C0.40181778,42.665765 0.69503616,42.7454045 1.12943376,42.7454045 L1.12943376,42.7454045 L1.97650908,42.7454045 C1.93306932,43.3970009 1.91134944,44.0413574 1.91134944,44.6784738 C1.91134944,48.8342109 3.38830128,50.9120794 6.34220496,50.9120794 Z M4.84353324,40.2041786 C5.00281236,39.031305 5.20191126,37.9634109 5.44082994,37.0004963 C5.67974862,36.0375816 5.93314722,35.2846257 6.20102574,34.7416287 C6.46890426,34.1986317 6.71144292,33.9271332 6.92864172,33.9271332 C7.24719996,33.9271332 7.40647908,34.3542909 7.40647908,35.2086062 C7.40647908,35.961562 7.19290026,36.7977774 6.76574262,37.7172523 C6.33858498,38.6367272 5.69784852,39.4657026 4.84353324,40.2041786 Z M12.4237714,39.2485038 C13.0464079,39.2485038 13.5459652,39.0783648 13.9224431,38.7380867 C14.298921,38.3978085 14.48716,37.9380711 14.48716,37.3588743 C14.48716,36.8810369 14.3206409,36.511799 13.9876027,36.2511604 C13.6545646,35.9905218 13.220167,35.8602026 12.6844099,35.8602026 C12.0907332,35.8602026 11.5947959,36.0303416 11.1965981,36.3706197 C10.7984003,36.7108979 10.5993014,37.1344355 10.5993014,37.6412327 C10.5993014,38.1480299 10.7513406,38.5426077 11.0554189,38.8249662 C11.3594972,39.1073246 11.8156147,39.2485038 12.4237714,39.2485038 Z M12.2500123,50.9120794 C13.4952854,50.9120794 14.834678,50.0360442 16.2681901,48.2839739 C16.5433086,47.9654157 16.6808678,47.5165382 16.6808678,46.9373414 C16.6808678,46.633263 16.6265681,46.3943444 16.5179687,46.2205853 C16.4093693,46.0468263 16.2609502,45.9599468 16.0727112,45.9599468 C15.8555124,45.9599468 15.6600335,46.0613062 15.4862744,46.2640251 C14.834678,47.0459408 14.3134009,47.6178976 13.9224431,47.9798956 C13.5314852,48.3418936 13.205687,48.5228926 12.9450485,48.5228926 C12.66993,48.5228926 12.4744511,48.4070532 12.3586117,48.1753745 C12.2427724,47.9436958 12.1848527,47.6106576 12.1848527,47.17626 C12.1848527,46.6115432 12.3586117,45.5327891 12.7061298,43.9399979 C12.9812483,42.6223252 13.1188075,41.7824898 13.1188075,41.4204918 C13.1188075,40.9281746 12.7495696,40.6820159 12.0110936,40.6820159 C11.5332563,40.6820159 11.1857382,40.7688954 10.9685394,40.9426545 C10.7513406,41.1164135 10.5775816,41.4349718 10.4472623,41.8983292 C10.1866237,42.7816043 9.9730449,43.7336591 9.80652582,44.7544934 C9.64000674,45.7753278 9.5567472,46.6115432 9.5567472,47.2631396 C9.5567472,48.3636135 9.77032602,49.2468886 10.1974837,49.9129649 C10.6246413,50.5790412 11.3088175,50.9120794 12.2500123,50.9120794 Z M22.5886752,50.9120794 C23.5009102,50.9120794 24.3154057,50.6659208 25.0321617,50.1736035 C25.7489177,49.6812862 26.418614,49.0514097 27.0412506,48.2839739 C27.3163691,47.9654157 27.4539283,47.5165382 27.4539283,46.9373414 C27.4539283,46.633263 27.3996286,46.3943444 27.2910292,46.2205853 C27.1824298,46.0468263 27.0340106,45.9599468 26.8457717,45.9599468 C26.6285729,45.9599468 26.433094,46.0613062 26.2593349,46.2640251 C25.5932586,47.0604207 25.0611215,47.6359975 24.6629237,47.9907555 C24.2647259,48.3455136 23.9208278,48.5228926 23.6312294,48.5228926 C23.2113118,48.5228926 23.0013529,48.2332942 23.0013529,47.6540974 C23.0013529,47.2486596 23.1389122,46.4160642 23.4140306,45.1563112 C23.7325889,43.6793594 23.891868,42.658525 23.891868,42.0938081 C23.891868,41.1526133 23.4212706,40.6820159 22.4800758,40.6820159 C22.0022384,40.6820159 21.4773413,40.848535 20.9053845,41.1815732 C20.3334277,41.5146113 19.7506109,42.0720882 19.1569342,42.8540039 C18.5632574,43.6359196 18.0275004,44.649514 17.549663,45.8947871 C17.6075827,45.2576706 17.6799823,44.7219136 17.7668618,44.287516 C17.8537414,43.8531184 17.9695807,43.3463212 18.1143799,42.7671244 C18.3315787,41.9562489 18.4401781,41.4349718 18.4401781,41.203293 C18.4401781,41.0005742 18.3822584,40.8630149 18.2664191,40.7906153 C18.1505797,40.7182157 17.9478608,40.6820159 17.6582624,40.6820159 C17.1225054,40.6820159 16.7062077,40.7797554 16.4093693,40.9752343 C16.112531,41.1707132 15.8989522,41.4784115 15.7686329,41.8983292 C15.2328758,43.5924798 14.9649973,45.38075 14.9649973,47.2631396 C14.9649973,48.5373725 15.0772167,49.4640874 15.3016555,50.0432842 C15.5260942,50.622481 15.9134321,50.9120794 16.463669,50.9120794 C16.9125466,50.9120794 17.2419647,50.7926201 17.4519236,50.5537014 C17.6618824,50.3147827 17.8465014,49.8550452 18.0057805,49.174489 C18.2229793,48.2912139 18.5089577,47.4513785 18.8637158,46.6549829 C19.2184738,45.8585873 19.5659919,45.2178509 19.90627,44.7327735 C20.2465481,44.2476962 20.5108067,44.0051576 20.6990456,44.0051576 C20.8583248,44.0051576 20.9379643,44.1209969 20.9379643,44.3526756 C20.9379643,44.7001937 20.8438448,45.3300702 20.6556059,46.2423052 C20.452887,47.2848594 20.3515276,48.0088554 20.3515276,48.4142932 C20.3515276,49.2251687 20.5397665,49.8441853 20.9162444,50.2713429 C21.2927224,50.6985006 21.8501993,50.9120794 22.5886752,50.9120794 Z M27.3018892,58.579197 C27.0846904,58.579197 26.9290312,58.4995575 26.8349117,58.3402784 C26.7407923,58.1809992 26.6937325,57.9782804 26.6937325,57.7321217 C26.6937325,57.1529249 26.9435111,56.4759887 27.4430684,55.7013129 C27.9426256,54.9266372 28.7498812,54.068702 29.864835,53.1275072 C29.4159575,55.0822964 28.96708,56.4796086 28.5182024,57.319444 C28.0693249,58.1592794 27.6638872,58.579197 27.3018892,58.579197 Z M30.776,47.72348 L30.7341665,48.0437145 C30.6211874,48.8860526 30.5196492,49.5453358 30.4295519,50.0215643 L30.4295519,50.0215643 L30.3643922,50.5211216 C28.8150408,51.708475 27.6168274,52.7618892 26.7697521,53.6813641 C25.9226768,54.600839 25.34348,55.4153345 25.0321617,56.1248506 C24.7208434,56.8343667 24.5651843,57.5294028 24.5651843,58.2099591 C24.5651843,58.948435 24.796863,59.5457317 25.2602204,60.0018492 C25.7235779,60.4579667 26.3244946,60.6860254 27.0629705,60.6860254 C28.6268018,60.6860254 29.8793149,59.6000314 30.8205097,57.4280434 C31.7617045,55.2560554 32.5001804,52.3093917 33.0359375,48.5880522 C33.0938572,48.2115743 33.2893361,47.002501 33.6223742,44.9608323 C33.9988522,42.832284 34.1870911,41.5942509 34.1870911,41.2467328 C34.1870911,41.0440139 34.1219315,40.8992147 33.9916122,40.8123352 C33.8612929,40.7254557 33.6296142,40.6820159 33.296576,40.6820159 C32.8187387,40.6820159 32.4603607,40.7761354 32.221442,40.9643744 C31.9825233,41.1526133 31.8051443,41.4639316 31.6893049,41.8983292 C31.3417868,43.1870421 30.9834088,44.2730361 30.6141709,45.1563112 C30.2449329,46.0395863 29.8974148,46.6984227 29.5716166,47.1328203 C29.2458184,47.5672179 28.9743199,47.7844167 28.7571211,47.7844167 C28.4530428,47.7844167 28.3010036,47.5092982 28.3010036,46.9590612 C28.3010036,46.6115432 28.3444434,46.1662856 28.4313229,45.6232886 C28.5182024,45.0802916 28.6195619,44.5119548 28.7354012,43.918278 C28.8222808,43.4838804 28.9381201,42.9988031 29.0829193,42.4630461 C29.2421984,41.7969698 29.321838,41.4060119 29.321838,41.2901726 C29.321838,41.0874537 29.2602983,40.9354145 29.137219,40.8340551 C29.0141397,40.7326956 28.7933209,40.6820159 28.4747627,40.6820159 C27.9100458,40.6820159 27.4973681,40.7761354 27.2367295,40.9643744 C26.976091,41.1526133 26.7733721,41.4639316 26.6285729,41.8983292 C26.2955347,42.9119236 26.056616,43.8712183 25.9118168,44.7762133 C25.7670176,45.6812083 25.694618,46.6767028 25.694618,47.7626968 C25.694618,48.6604518 25.9009569,49.4097877 26.3136346,50.0107044 C26.7263123,50.6116211 27.2584494,50.9120794 27.9100458,50.9120794 C28.4892426,50.9120794 29.0394796,50.6405809 29.5607567,50.0975839 C30.0820338,49.5545869 30.4874716,48.7618113 30.77707,47.719257 L30.776,47.72348 Z M45.5465884,50.9120794 C46.516743,50.9120794 47.4036381,50.5428414 48.2072737,49.8043655 C49.0109092,49.0658896 49.5575262,48.095735 49.8471246,46.8939016 C50.8896788,46.8504618 51.8453536,46.6767028 52.7141488,46.3726245 C52.9313476,46.3002249 53.0906267,46.1662856 53.1919861,45.9708067 C53.2933456,45.7753278 53.3440253,45.4965893 53.3440253,45.1345913 C53.3440253,44.8449929 53.2933456,44.6060742 53.1919861,44.4178353 C53.0906267,44.2295963 52.9458275,44.1354768 52.7575885,44.1354768 C52.6417492,44.1354768 52.5403897,44.1499568 52.4535102,44.1789166 C51.5123154,44.4250752 50.7014399,44.5698744 50.0208836,44.6133142 C49.9050443,43.5418001 49.5430463,42.6404251 48.9348896,41.9091891 C48.326733,41.1779532 47.5375774,40.7761354 46.5674227,40.7037358 C47.609977,39.4150229 48.3556928,38.1842297 48.8045704,37.0113562 C49.2534479,35.8384827 49.4778866,34.6583692 49.4778866,33.4710158 C49.4778866,32.5587808 49.2751678,31.8166849 48.86973,31.2447281 C48.4642922,30.6727712 47.9285352,30.3867928 47.2624589,30.3867928 C46.0316657,30.3867928 44.9710115,31.1578485 44.0804965,32.69996 C43.1899814,34.2420715 42.5130451,36.1099812 42.0496877,38.3036891 C41.5863302,40.4973969 41.3546515,42.5282057 41.3546515,44.3961154 C41.3546515,46.5101837 41.6876897,48.1246948 42.353766,49.2396486 C43.0198423,50.3546025 44.0841164,50.9120794 45.5465884,50.9120794 Z M44.2216757,42.1806876 C44.3664749,40.4286173 44.5836737,38.8141062 44.8732721,37.3371544 C45.1628705,35.8602026 45.4778087,34.690949 45.8180869,33.8293938 C46.158365,32.9678385 46.4733032,32.5370609 46.7629016,32.5370609 C46.9511406,32.5370609 47.0995598,32.6601402 47.2081592,32.9062989 C47.3167586,33.1524575 47.3710583,33.5072156 47.3710583,33.970573 C47.3710583,35.0131272 47.0850799,36.2041007 46.513123,37.5434933 C45.9411662,38.8828859 45.1773504,40.4286173 44.2216757,42.1806876 Z M45.6334679,48.6097721 C45.2135502,48.6097721 44.8479322,48.3925733 44.5366139,47.9581757 C44.2252957,47.5237781 44.0696365,46.8939016 44.0696365,46.0685462 C44.0696365,45.0839116 44.2687354,44.2983759 44.6669332,43.7119392 C45.065131,43.1255024 45.5610683,42.832284 46.154745,42.832284 L46.154745,42.832284 L46.2199046,42.832284 C46.161985,43.1798021 46.1330251,43.4549206 46.1330251,43.6576395 C46.1330251,44.2078764 46.2524845,44.7291536 46.4914031,45.2214708 C46.7303218,45.7137881 47.0742199,46.1119859 47.5230974,46.4160642 C47.4072581,47.1255803 47.1755794,47.6685773 46.8280613,48.0450552 C46.4805432,48.4215332 46.0823454,48.6097721 45.6334679,48.6097721 Z M54.3214199,39.2485038 C54.9440564,39.2485038 55.4436137,39.0783648 55.8200916,38.7380867 C56.1965695,38.3978085 56.3848085,37.9380711 56.3848085,37.3588743 C56.3848085,36.8810369 56.2182894,36.511799 55.8852512,36.2511604 C55.5522131,35.9905218 55.1178155,35.8602026 54.5820584,35.8602026 C53.9883817,35.8602026 53.4924445,36.0303416 53.0942467,36.3706197 C52.6960489,36.7108979 52.49695,37.1344355 52.49695,37.6412327 C52.49695,38.1480299 52.6489891,38.5426077 52.9530674,38.8249662 C53.2571458,39.1073246 53.7132632,39.2485038 54.3214199,39.2485038 Z M54.1476608,50.9120794 C55.392934,50.9120794 56.7323266,50.0360442 58.1658386,48.2839739 C58.4409571,47.9654157 58.5785164,47.5165382 58.5785164,46.9373414 C58.5785164,46.633263 58.5242167,46.3943444 58.4156173,46.2205853 C58.3070179,46.0468263 58.1585987,45.9599468 57.9703597,45.9599468 C57.7531609,45.9599468 57.557682,46.0613062 57.383923,46.2640251 C56.7323266,47.0459408 56.2110494,47.6178976 55.8200916,47.9798956 C55.4291338,48.3418936 55.1033356,48.5228926 54.842697,48.5228926 C54.5675785,48.5228926 54.3720996,48.4070532 54.2562602,48.1753745 C54.1404209,47.9436958 54.0825012,47.6106576 54.0825012,47.17626 C54.0825012,46.6115432 54.2562602,45.5327891 54.6037783,43.9399979 C54.8788968,42.6223252 55.016456,41.7824898 55.016456,41.4204918 C55.016456,40.9281746 54.6472181,40.6820159 53.9087422,40.6820159 C53.4309048,40.6820159 53.0833867,40.7688954 52.8661879,40.9426545 C52.6489891,41.1164135 52.4752301,41.4349718 52.3449108,41.8983292 C52.0842722,42.7816043 51.8706934,43.7336591 51.7041743,44.7544934 C51.5376553,45.7753278 51.4543957,46.6115432 51.4543957,47.2631396 C51.4543957,48.3636135 51.6679745,49.2468886 52.0951322,49.9129649 C52.5222898,50.5790412 53.206466,50.9120794 54.1476608,50.9120794 Z M62.1188568,50.9120794 C63.0745315,50.9120794 63.9216068,50.6659208 64.6600828,50.1736035 C65.3985587,49.6812862 66.0791149,49.0514097 66.7017515,48.2839739 C66.97687,47.9654157 67.1144292,47.5165382 67.1144292,46.9373414 C67.1144292,46.633263 67.0601295,46.3943444 66.9515301,46.2205853 C66.8429307,46.0468263 66.6945115,45.9599468 66.5062726,45.9599468 C66.2890738,45.9599468 66.0935948,46.0613062 65.9198358,46.2640251 C65.2682394,47.0169809 64.7035225,47.5816978 64.2256852,47.9581757 C63.7478478,48.3346536 63.1976108,48.5228926 62.5749743,48.5228926 C61.8075385,48.5228926 61.2464416,48.2188143 60.8916836,47.6106576 C60.5369255,47.002501 60.3595465,45.9454668 60.3595465,44.4395552 C60.3595465,44.0341174 60.3740264,43.4694005 60.4029863,42.7454045 L60.4029863,42.7454045 L63.0528116,42.7454045 C64.6890426,42.7454045 65.5071581,42.2458473 65.5071581,41.2467328 C65.5071581,40.9716143 65.4564784,40.7833754 65.3551189,40.6820159 C65.2537595,40.5806565 65.0872404,40.5299768 64.8555617,40.5299768 L64.8555617,40.5299768 L62.4229351,40.5299768 C64.3053247,38.864786 65.2465195,36.9099968 65.2465195,34.6656092 C65.2465195,33.8547336 65.0727605,33.1814174 64.7252424,32.6456603 C64.3777243,32.1099033 63.899887,31.8420248 63.2917303,31.8420248 C62.4663749,31.8420248 61.6953191,32.2329826 60.9785631,33.0148983 C60.2618071,33.796814 59.6500304,34.8466082 59.1432332,36.1642809 C58.636436,37.4819536 58.2599581,38.9371856 58.0137995,40.5299768 L58.0137995,40.5299768 L56.7757663,40.5299768 C56.1241699,40.5299768 55.7983717,40.9354145 55.7983717,41.74629 C55.7983717,42.0938081 55.8743913,42.3472067 56.0264305,42.5064858 C56.1784696,42.665765 56.471688,42.7454045 56.9060856,42.7454045 L56.9060856,42.7454045 L57.7531609,42.7454045 C57.7097212,43.3970009 57.6880013,44.0413574 57.6880013,44.6784738 C57.6880013,48.8342109 59.1649531,50.9120794 62.1188568,50.9120794 Z M60.6201851,40.2041786 C60.7794642,39.031305 60.9785631,37.9634109 61.2174818,37.0004963 C61.4564005,36.0375816 61.7097991,35.2846257 61.9776776,34.7416287 C62.2455561,34.1986317 62.4880948,33.9271332 62.7052936,33.9271332 C63.0238518,33.9271332 63.1831309,34.3542909 63.1831309,35.2086062 C63.1831309,35.961562 62.9695521,36.7977774 62.5423945,37.7172523 C62.1152368,38.6367272 61.4745004,39.4657026 60.6201851,40.2041786 Z M69.8294142,50.9120794 C70.944368,50.9120794 71.9905423,50.6369609 72.9679369,50.086724 C73.9453315,49.536487 74.7019073,48.9355703 75.2376643,48.2839739 C75.5127828,47.9654157 75.650342,47.5165382 75.650342,46.9373414 C75.650342,46.633263 75.5960423,46.3943444 75.4874429,46.2205853 C75.3788435,46.0468263 75.2304244,45.9599468 75.0421854,45.9599468 C74.8249866,45.9599468 74.6295077,46.0613062 74.4557486,46.2640251 C73.847592,47.002501 73.127216,47.5997977 72.2946206,48.0559152 C71.4620252,48.5120327 70.7199293,48.7400914 70.0683329,48.7400914 C69.0547385,48.7400914 68.3669423,48.4070532 68.0049443,47.7409769 C69.7135748,47.3210592 70.9262681,46.7527224 71.6430242,46.0359663 C72.3597802,45.3192103 72.7181582,44.461275 72.7181582,43.4621606 C72.7181582,42.6078453 72.4647596,41.930909 71.9579624,41.4313518 C71.4511652,40.9317945 70.777849,40.6820159 69.9380136,40.6820159 C68.9968188,40.6820159 68.1533635,40.9354145 67.4076476,41.4422117 C66.6619317,41.9490089 66.0791149,42.6331851 65.6591972,43.4947404 C65.2392796,44.3562956 65.0293207,45.2866305 65.0293207,46.285745 C65.0293207,47.719257 65.4492384,48.8486908 66.2890738,49.6740462 C67.1289091,50.4994017 68.3090226,50.9120794 69.8294142,50.9120794 Z M67.6574262,46.0468263 L67.6574262,46.0033865 C67.6574262,45.1201114 67.8420452,44.3671556 68.2112831,43.744519 C68.5805211,43.1218824 69.0330186,42.8105642 69.5687756,42.8105642 C69.8294142,42.8105642 70.0357531,42.8938237 70.1877922,43.0603428 C70.3398314,43.2268619 70.415851,43.4476806 70.415851,43.7227991 C70.415851,44.2585562 70.1696923,44.7291536 69.677375,45.1345913 C69.1850578,45.5400291 68.5117415,45.8441074 67.6574262,46.0468263 L67.6574262,46.0468263 Z M77.9309294,51.3899168 C78.5825258,51.3899168 79.1617226,51.2233977 79.6685198,50.8903595 C80.175317,50.5573214 80.5698949,50.1193038 80.8522533,49.5763068 C81.1346117,49.0333098 81.275791,48.457733 81.275791,47.8495763 C81.275791,47.3427791 81.1563316,46.8758017 80.9174129,46.4486441 C80.6784943,46.0214864 80.3273562,45.5038293 79.8639988,44.8956726 C79.5454405,44.5047148 79.3101418,44.1789166 79.1581027,43.918278 C79.0060635,43.6576395 78.9300439,43.4187208 78.9300439,43.201522 C78.9300439,42.839524 79.0603632,42.3978864 79.3210018,41.8766093 C79.4223612,41.6883704 79.5020008,41.5001314 79.5599204,41.3118924 C79.6178401,41.1236535 79.6468,40.9860942 79.6468,40.8992147 C79.6468,40.7399356 79.5671604,40.6240962 79.4078813,40.5516966 C79.2486022,40.479297 78.9662437,40.4430972 78.560806,40.4430972 C77.6920108,40.4430972 77.1200539,40.7616555 76.8449354,41.398772 C76.4105378,42.3978864 76.0593998,43.1870421 75.7915213,43.7662389 C75.5236427,44.3454357 75.2593842,44.8449929 74.9987456,45.2649106 C74.5933079,45.9020271 73.9923912,46.7129026 73.1959956,47.6975372 L73.1959956,47.6975372 L72.9136372,48.0450552 C72.7109183,48.2912139 72.6095588,48.5590924 72.6095588,48.8486908 C72.6095588,49.0948494 72.6819584,49.3011883 72.8267576,49.4677074 C72.9715568,49.6342265 73.1597958,49.717486 73.3914745,49.717486 C73.6810729,49.717486 73.9561914,49.5871667 74.21683,49.3265282 C74.7381071,48.819731 75.2195644,48.2839739 75.661202,47.719257 C76.1028395,47.1545402 76.5480971,46.4450241 76.9969746,45.5907088 C77.1996935,45.8223875 77.4168923,46.093886 77.648571,46.4052043 C77.8802497,46.7165226 78.0721087,47.0387008 78.2241478,47.371739 C78.376187,47.7047771 78.4594465,48.0595352 78.4739264,48.4360131 C78.3436072,48.4215332 78.1517482,48.3961933 77.8983496,48.3599935 C77.644951,48.3237937 77.4241322,48.3056938 77.2358933,48.3056938 C76.7001362,48.3056938 76.2946985,48.443253 76.01958,48.7183715 C75.7444615,48.99349 75.6069023,49.3192882 75.6069023,49.6957661 C75.6069023,50.1301637 75.8060012,50.5211216 76.204199,50.8686396 C76.6023968,51.2161577 77.1779736,51.3899168 77.9309294,51.3899168 Z" id="tinybites" fill="#064C3F"></path>
            </g>
        </g>
    </g>
</svg>