<?xml version="1.0" encoding="UTF-8"?>
<svg width="134px" height="103px" viewBox="0 0 134 103" version="1.1" xmlns="http://www.w3.org/2000/svg" xmlns:xlink="http://www.w3.org/1999/xlink">
    <!-- Generator: Sketch 63.1 (92452) - https://sketch.com -->
    <title>Logo - white w/ words</title>
    <desc>Created with Sketch.</desc>
    <g id="Logo---white-w/-words" stroke="none" stroke-width="1" fill="none" fill-rule="evenodd">
        <g id="TB-logo-V2" transform="translate(22.000000, 16.000000)">
            <path d="M66.21678,13.70754 C64.9963046,14.0088556 63.8050968,14.4182937 62.65728,14.931 C61.6770811,15.3703595 60.7296512,15.8794451 59.82228,16.45434 C59.07636,16.92558 58.35816,17.4384 57.65886,17.97642 C57.32874,18.22842 57.01248,18.50436 56.68362,18.76014 C56.3976,18.98316 55.84194,19.10538 55.67562,18.66312 C55.57104,18.38718 55.76004,18.18558 55.90494,17.97516 L56.23758,17.49006 C56.45262,17.17506 56.67228,16.863 56.89656,16.55388 C57.35268,15.92388 57.8277,15.30522 58.32288,14.7042 C58.81806,14.10318 59.34726,13.5009 59.89284,12.92886 C60.43842,12.35682 61.00794,11.8062 61.6014,11.29086 C62.1881574,10.7708826 62.8022296,10.2825691 63.441,9.828 C64.0715436,9.3818702 64.7297445,8.97617607 65.41164,8.61336 C66.0863913,8.25587817 66.7872809,7.95008135 67.50828,7.6986 C67.70484,7.63056 67.90518,7.5663 68.10552,7.50708 C71.04006,6.63894 74.09934,7.41384 77.06916,7.63308 C78.51942,7.73892 79.96716,7.80822 81.42498,7.85484 C83.44098,7.9191 79.28298,9.91116 74.11698,15.5673 C71.442,18.48042 68.73048,22.05 64.67706,22.59558 C62.2188,22.92822 60.77736,22.49604 58.77144,21.17304 C58.6868315,21.1174256 58.6310223,21.02736 58.6188823,20.9268405 C58.6067423,20.826321 58.6395046,20.7255583 58.70844,20.6514 C60.83784,18.37458 64.4931,15.71472 66.4965,14.32116 C66.6324655,14.2265982 66.6813592,14.0483377 66.6126638,13.897641 C66.5439684,13.7469443 66.3773396,13.6669302 66.21678,13.70754 Z" id="Path" fill="#FFFFFF" fill-rule="nonzero"></path>
            <path d="M53.71002,10.60542 C54.6651,13.56264 54.34002,16.04106 54.18756,17.44218 C54.1849414,17.5990733 54.2693158,17.7445463 54.4068,17.82018 C54.59958,17.9172 54.74196,17.8038 54.8289,17.63118 C54.93474,17.42202 55.00152,17.19018 55.0935,16.97472 C55.21614,16.68576 55.33332,16.3947 55.44504,16.10154 C55.67436,15.50178 55.881,14.89446 56.05866,14.27706 C56.2382474,13.6552853 56.3846144,13.024393 56.49714,12.38706 C56.6078827,11.7577784 56.6756593,11.1216879 56.7,10.4832 C56.7247779,9.85179883 56.6948461,9.21943786 56.61054,8.5932 C56.5550607,8.18002158 56.4708568,7.77121141 56.35854,7.36974 C55.82808,5.4999 54.3753,4.1202 53.25138,2.60064 C52.7037,1.85808 52.17156,1.10208 51.65496,0.33264 C50.93676,-0.72828 51.27696,2.1798 49.99554,6.8733 C49.3353,9.2925 48.34368,11.95992 49.4235,14.32116 C50.07618,15.7563 50.79186,16.38 52.164,17.01 C52.2283714,17.0394739 52.3024874,17.038944 52.3664308,17.0085527 C52.4303742,16.9781613 52.4775864,16.9210258 52.49538,16.8525 C52.97796,14.98392 53.16822,12.23082 53.24004,10.66716 C53.2413309,10.547989 53.3300817,10.4479152 53.4482445,10.4323924 C53.5664073,10.4168697 53.6779937,10.4906257 53.71002,10.60542 L53.71002,10.60542 Z" id="Path" fill="#FFFFFF" fill-rule="nonzero"></path>
            <path d="M20.26458,47.82204 C22.2661797,47.6241748 24.089593,46.5856198 25.2808164,44.9649599 C26.4720399,43.3442999 26.9189963,41.2940164 26.5104,39.3246 C26.2953217,38.2825182 25.8473469,37.3025734 25.2,36.4581 C24.66954,35.76762 24.02694,35.12502 23.19912,34.8201 C22.96476,34.7319 22.617,34.64496 22.56912,34.35138 C22.53888,34.14474 22.73166,34.11072 22.88286,34.07418 C23.72076,33.87006 24.47424,33.2955 25.06392,32.68818 C25.4164121,32.3234859 25.71855,31.9132902 25.9623,31.4685 C26.2106757,31.0168299 26.3955391,30.5330474 26.51166,30.03084 C26.9305592,28.2249203 26.4450727,26.3280919 25.21008,24.94548 C24.62544,24.29154 23.96772,24.21594 24.63552,23.40324 C25.89552,21.87612 27.86994,20.53296 29.53314,19.48968 C31.35611,18.3370171 33.357083,17.4936283 35.45514,16.99362 C38.5538203,16.2873609 41.7687168,16.2607098 44.87868,16.9155 C46.24704,17.20278 49.99302,18.08982 48.5667,20.20284 C48.35754,20.51154 48.0438,20.72952 47.7414,20.9475 C44.9505,22.9635 42.65478,25.64226 41.30154,28.82754 C39.9798,31.93722 39.56778,34.79616 39.23766,38.2473 C39.14064,39.27546 39.09024,40.29102 38.99322,41.29776 C38.9919539,41.3327599 39.0165519,41.3633916 39.0509997,41.3697123 C39.0854474,41.376033 39.119318,41.3561295 39.13056,41.32296 C40.01256,38.17296 41.15286,34.50762 42.66486,31.64868 C44.17686,28.78974 46.35666,25.61706 49.05054,23.64138 C50.778,22.365 53.046,21.61782 55.188,21.98448 C57.36528,22.36248 59.01966,23.91102 60.33132,25.5969 C64.36332,30.79188 66.26466,37.61226 65.29068,44.13654 C64.51452,49.33278 62.10666,54.21654 58.58622,58.10364 C49.39704,68.25168 34.38036,66.65904 24.23232,57.47364 C24.13908,57.39048 24.04836,57.30606 23.95638,57.22164 C23.8644,57.13722 23.7762,57.0528 23.68674,56.96964 L23.4234,56.71764 C23.33646,56.6307 23.25078,56.54502 23.1651,56.45682 C23.07942,56.36862 22.995,56.28294 22.9131,56.19474 C22.8312,56.10654 22.74678,56.0196 22.6611,55.93014 C22.57542,55.84068 22.49856,55.75374 22.41792,55.66428 C22.33728,55.57482 22.26042,55.48536 22.1823,55.39464 C22.10418,55.30392 22.02732,55.21446 21.95046,55.12374 C21.8736,55.03302 21.79926,54.9423 21.72492,54.85032 C21.65058,54.75834 21.5775,54.66762 21.50442,54.57564 C21.43134,54.48366 21.36078,54.39168 21.29022,54.29844 C21.21966,54.2052 21.1491,54.11322 21.0798,54.01872 L20.87568,53.73774 C20.8089,53.6445 20.74338,53.55 20.67786,53.4555 C20.61234,53.361 20.55186,53.26524 20.48382,53.17074 C20.41578,53.07624 20.35782,52.97922 20.29608,52.88346 C20.23434,52.7877 20.17008,52.69194 20.11338,52.59492 C20.05668,52.4979 19.99368,52.40214 19.93572,52.30512 C19.87776,52.2081 19.8198,52.11108 19.7631,52.0128 C19.7064,51.91452 19.65096,51.8175 19.59678,51.71922 C19.5426,51.62094 19.48842,51.52392 19.43424,51.42438 C19.38006,51.32484 19.32966,51.22782 19.278,51.12828 L19.1268,50.82966 C19.07766,50.73012 19.02852,50.63058 18.98064,50.52978 C18.93276,50.42898 18.88614,50.32944 18.84078,50.22864 C18.79542,50.12784 18.7488,50.02704 18.7047,49.92624 C18.6606,49.82544 18.61776,49.72464 18.5787,49.62258 C18.53964,49.52052 18.49428,49.41972 18.4527,49.31766 C18.41112,49.2156 18.3708,49.11354 18.3267,49.01022 C18.2826,48.9069 18.24984,48.8061 18.21204,48.70278 L18.10242,48.39408 C18.06714,48.29076 18.03186,48.18744 17.99784,48.08412 C17.9956488,48.0724659 17.9922713,48.0610666 17.98776,48.0501 L17.97516,48.01356 L17.95122,47.94048 C17.9313124,47.8893728 17.9157179,47.8366889 17.9046,47.78298 C17.8989013,47.7593669 17.9039785,47.7344423 17.91846,47.71494 C17.95122,47.67588 18.00918,47.6973 18.05076,47.70486 L18.25236,47.7477 L18.32166,47.7603 C18.44766,47.78298 18.57366,47.80188 18.69966,47.817 C18.82566,47.83212 18.95922,47.84598 19.09026,47.8548 C19.2213,47.86362 19.35486,47.8674 19.48716,47.86866 C19.61946,47.86992 19.75428,47.86866 19.8891,47.86236 C20.02392,47.85606 20.14488,47.83338 20.26458,47.82204 Z" id="Path" fill="#FFFFFF" fill-rule="nonzero"></path>
            <text id="tiny-bites" fill="#064C3F" font-family="Pacifico-Regular, Pacifico" font-size="21.71988" font-weight="normal">
                <tspan x="0" y="50.80348">tiny bites</tspan>
            </text>
        </g>
    </g>
</svg>